<svg width="20" height="18" viewBox="0 0 20 18" fill="none" xmlns="http://www.w3.org/2000/svg">
<path d="M3.81641 1.65724C4.1935 1.55472 4.59029 1.5 4.99986 1.5H15.4999C15.9094 1.5 16.3062 1.55472 16.6833 1.65724C16.1906 0.674537 15.174 0 13.9999 0H6.49986C5.3257 0 4.3091 0.674537 3.81641 1.65724Z" fill="#999999"/>
<path d="M0.5 9C0.5 7.34315 1.84315 6 3.5 6H17C18.6569 6 20 7.34315 20 9V15C20 16.6569 18.6569 18 17 18H3.5C1.84315 18 0.5 16.6569 0.5 15V9Z" fill="#999999"/>
<path d="M3.49986 4.5C3.09029 4.5 2.6935 4.55472 2.31641 4.65724C2.8091 3.67454 3.8257 3 4.99986 3H15.4999C16.674 3 17.6906 3.67454 18.1833 4.65724C17.8062 4.55472 17.4094 4.5 16.9999 4.5H3.49986Z" fill="#999999"/>
</svg>
